<?xml version="1.0" ?><!DOCTYPE svg  PUBLIC '-//W3C//DTD SVG 1.1//EN'  'http://www.w3.org/Graphics/SVG/1.1/DTD/svg11.dtd'><svg enable-background="new 0 0 128 128" id="Слой_1" version="1.1" viewBox="0 0 128 128" xml:space="preserve" xmlns="http://www.w3.org/2000/svg" xmlns:xlink="http://www.w3.org/1999/xlink"><g><g><polygon fill="#D6AB7F" points="64.4,4 45.5,14.1 41.4,18.7 32.4,21.1 10,33 10,91.7 64.4,124 118,91.7 118,33   "/></g><g><polygon fill="#FFFFFF" points="32.4,21.1 84.9,51 84.9,63 98.3,55.7 98.3,43.6 45.5,14.1   "/></g><g><path d="M64.4,125c-0.2,0-0.4,0-0.5-0.1L9.5,92.6C9.2,92.4,9,92,9,91.7V33c0-0.4,0.2-0.7,0.5-0.9    c0.3-0.2,0.7-0.2,1,0l54.4,29c0.5,0.3,0.7,0.9,0.4,1.4C65,63,64.4,63.2,63.9,63L11,34.7v56.4l53.4,31.7L117,91.1V33    c0-0.6,0.4-1,1-1s1,0.4,1,1v58.7c0,0.4-0.2,0.7-0.5,0.9l-53.6,32.3C64.8,125,64.6,125,64.4,125z" fill="#62355C"/></g><g opacity="0.2"><polygon fill="#121519" points="64.4,124 118,91.7 118,33 64.4,62.1   "/></g><g><polygon fill="#FFFFFF" points="32.4,21.1 32.4,21.1 45,14.4   "/></g><g><path d="M64.4,125c-0.2,0-0.4,0-0.5-0.1L9.5,92.6C9.2,92.4,9,92,9,91.7V33c0-0.4,0.2-0.7,0.5-0.9l22.4-12    c0.5-0.3,1.1-0.1,1.4,0.4c0.3,0.5,0.1,1.1-0.4,1.4L11,33.6v57.5l53.4,31.7L117,91.1V33.6L64.4,5.1L45.9,15    c-0.5,0.3-1.1,0.1-1.4-0.4c-0.3-0.5-0.1-1.1,0.4-1.4l19-10.1c0.3-0.2,0.7-0.2,0.9,0l53.6,29c0.3,0.2,0.5,0.5,0.5,0.9v58.7    c0,0.4-0.2,0.7-0.5,0.9l-53.6,32.3C64.8,125,64.6,125,64.4,125z" fill="#62355C"/></g><g><path d="M84.9,64c-0.2,0-0.4,0-0.5-0.1c-0.3-0.2-0.5-0.5-0.5-0.9V51.5l-52-29.6c-0.3-0.2-0.5-0.5-0.5-0.9    s0.2-0.7,0.5-0.9l13-6.9c0.3-0.2,0.7-0.2,1,0l52.9,29.5c0.3,0.2,0.5,0.5,0.5,0.9v12.1c0,0.4-0.2,0.7-0.5,0.9l-13.4,7.3    C85.3,64,85.1,64,84.9,64z M34.5,21.1l50.9,29c0.3,0.2,0.5,0.5,0.5,0.9v10.4l11.4-6.2V44.2L45.5,15.3L34.5,21.1z" fill="#62355C"/></g><g><path d="M64.4,125c-0.2,0-0.4,0-0.5-0.1L9.5,92.6C9.2,92.4,9,92,9,91.7V33c0-0.4,0.2-0.7,0.5-0.9    c0.3-0.2,0.7-0.2,1,0l53.9,28.8L84,50.3c0.5-0.3,1.1-0.1,1.4,0.4c0.3,0.5,0.1,1.1-0.4,1.4L64.9,63c-0.3,0.2-0.7,0.2-0.9,0L11,34.7    v56.4l53.4,31.7L117,91.1V34.7l-18.1,9.8c-0.5,0.3-1.1,0.1-1.4-0.4s-0.1-1.1,0.4-1.4l19.6-10.6c0.3-0.2,0.7-0.2,1,0    c0.3,0.2,0.5,0.5,0.5,0.9v58.7c0,0.4-0.2,0.7-0.5,0.9l-53.6,32.3C64.8,125,64.6,125,64.4,125z" fill="#62355C"/></g><g><path d="M32.4,22.1c-0.4,0-0.7-0.2-0.9-0.5c-0.1-0.1-0.1-0.3-0.1-0.5c0-0.4,0.2-0.7,0.5-0.9l12.5-6.7    c0.5-0.3,1.1-0.1,1.4,0.4c0.1,0.1,0.1,0.3,0.1,0.5c0,0.4-0.2,0.7-0.5,0.9l-12.5,6.7C32.8,22,32.6,22.1,32.4,22.1z" fill="#62355C"/></g><g><path d="M64.4,125c-0.6,0-1-0.4-1-1V62.1c0-0.6,0.4-1,1-1s1,0.4,1,1V124C65.4,124.6,65,125,64.4,125z" fill="#62355C"/></g></g></svg>